<svg xmlns="http://www.w3.org/2000/svg" viewBox="0 0 200 260" fill="none">
  <!-- Back frame -->
  <g transform="translate(100, 100) rotate(8) translate(-30, -45)">
    <rect width="60" height="80" rx="2" stroke="rgba(255,255,255,0.7)" stroke-width="1.5" fill="rgba(255,255,255,0.08)"/>
    <line x1="0" y1="65" x2="60" y2="65" stroke="rgba(255,255,255,0.7)" stroke-width="1.5"/>
  </g>
  <!-- Front frame -->
  <g transform="translate(70, 55)">
    <rect width="60" height="80" rx="2" fill="rgba(255,255,255,0.1)" stroke="white" stroke-width="1.5"/>
    <line x1="0" y1="65" x2="60" y2="65" stroke="white" stroke-width="1.5"/>
    <path d="M30 36 C30 36 22 29 22 24 C22 20.5 24.5 18 27.5 18 C29 18 30 19 30 19 C30 19 31 18 32.5 18 C35.5 18 38 20.5 38 24 C38 29 30 36 30 36Z" fill="white"/>
  </g>
  <text x="100" y="168" font-family="'Helvetica Neue', Helvetica, Arial, sans-serif" font-size="18" font-weight="800" fill="white" text-anchor="middle" letter-spacing="3">ANIKARE</text>
</svg>
